<?xml version="1.0" encoding="UTF-8" standalone="no"?>
<svg
        id="Layer_2"
        viewBox="0 0 519.48 145.7"
        version="1.1"
        sodipodi:docname="BLACK.svg"
        inkscape:version="1.2.1 (9c6d41e, 2022-07-14)"
        xmlns:inkscape="http://www.inkscape.org/namespaces/inkscape"
        xmlns:sodipodi="http://sodipodi.sourceforge.net/DTD/sodipodi-0.dtd"
        xmlns="http://www.w3.org/2000/svg"
>
  <sodipodi:namedview
     id="namedview32"
     pagecolor="#ffffff"
     bordercolor="#000000"
     borderopacity="0.25"
     inkscape:showpageshadow="2"
     inkscape:pageopacity="0.0"
     inkscape:pagecheckerboard="0"
     inkscape:deskcolor="#d1d1d1"
     showgrid="false"
     inkscape:zoom="1.6197667"
     inkscape:cx="209.2894"
     inkscape:cy="72.849998"
     inkscape:window-width="1309"
     inkscape:window-height="456"
     inkscape:window-x="81"
     inkscape:window-y="39"
     inkscape:window-maximized="0"
     inkscape:current-layer="Layer_2" />
  <defs
     id="defs4">
    <style
       id="style2">.cls-1{fill:#221f20;}</style>
  </defs>
  <g
     id="Layer_2-2"
     style="fill:#000000">
    <g
       id="g10"
       style="fill:#000000">
      <path
         class="cls-1"
         d="M493.52,64.01l-1.56-5.11c-.34-1.12-1.38-1.89-2.57-1.89h-8.46c-1.19,0-2.23,.78-2.57,1.91l-1.52,5.08c-.34,1.13-1.38,1.91-2.57,1.91h-.61c-1.81,0-3.1-1.74-2.56-3.45l10.06-32c.35-1.11,1.39-1.87,2.56-1.87h2.92c1.17,0,2.21,.76,2.56,1.87l10.06,32c.54,1.71-.75,3.45-2.56,3.45h-.62c-1.18,0-2.22-.77-2.57-1.89Zm-9.39-12.24h2.08c1.79,0,3.08-1.71,2.57-3.42l-1.03-3.45c-.76-2.53-4.37-2.54-5.14,0l-1.05,3.45c-.52,1.71,.77,3.43,2.57,3.43Z"
         id="path6"
         style="fill:#000000" />
      <path
         class="cls-1"
         d="M516.8,65.9h-12.68c-1.48,0-2.68-1.19-2.68-2.66h0c0-1.47,1.2-2.66,2.68-2.66h.58c1.48,0,2.68-1.19,2.68-2.66v-21.36c0-1.47-1.2-2.66-2.68-2.66h-.58c-1.48,0-2.68-1.19-2.68-2.66h0c0-1.47,1.2-2.66,2.68-2.66h12.68c1.48,0,2.68,1.19,2.68,2.66h0c0,1.47-1.2,2.66-2.68,2.66h-.78c-1.48,0-2.68,1.19-2.68,2.66v21.36c0,1.47,1.2,2.66,2.68,2.66h.78c1.48,0,2.68,1.19,2.68,2.66h0c0,1.47-1.2,2.66-2.68,2.66Z"
         id="path8"
         style="fill:#000000" />
    </g>
    <path
       class="cls-1"
       d="M136.86,91.22c-1.29,0-2.2,1.25-1.83,2.48,1,3.36,2.92,6.23,5.78,8.61,3.53,2.94,8.27,4.41,14.22,4.41,4.66,0,8.71-.73,12.15-2.18,2.76-1.17,5.22-2.64,7.37-4.42,.85-.7,2.11-.55,2.76,.34l5.12,7.04c.56,.77,.48,1.86-.22,2.5-3.8,3.51-7.79,5.94-11.98,7.31-4.64,1.51-9.7,2.27-15.19,2.27-4.98,0-9.62-.83-13.91-2.49-4.29-1.66-8-3.98-11.14-6.96-3.14-2.98-5.6-6.52-7.37-10.62-1.78-4.11-2.66-8.67-2.66-13.7s.82-9.4,2.46-13.53c1.64-4.13,3.94-7.7,6.92-10.73,2.98-3.02,6.54-5.37,10.69-7.06,4.15-1.68,8.74-2.53,13.77-2.53s9.94,.89,14.19,2.66c4.24,1.78,7.88,4.35,10.9,7.72,3.02,3.37,5.39,7.49,7.09,12.35,1.52,4.35,2.37,9.2,2.53,14.56,.03,1.07-.84,1.94-1.91,1.94h-49.72Zm32.99-12.6c1.31,0,2.25-1.3,1.81-2.54-1.05-2.99-2.98-5.48-5.77-7.46-3.55-2.51-7.59-3.77-12.11-3.77s-8.58,1.26-12.18,3.77c-2.83,1.98-4.78,4.46-5.84,7.45-.44,1.24,.49,2.55,1.81,2.55h32.28Z"
       id="path12"
       style="fill:#000000" />
    <path
       class="cls-1"
       d="M204,27.69h10.5c1.06,0,1.91,.86,1.91,1.91v25.72c0,1.56,1.77,2.45,3.04,1.53,1.73-1.25,3.47-2.27,5.23-3.04,2.79-1.22,5.99-1.83,9.58-1.83,4.15,0,8,.84,11.56,2.53,3.55,1.68,6.6,4.01,9.13,6.99,2.54,2.98,4.54,6.55,6.02,10.73,1.48,4.18,2.21,8.71,2.21,13.6s-.74,9.48-2.21,13.63c-1.48,4.15-3.48,7.72-6.02,10.69-2.54,2.98-5.58,5.29-9.13,6.96-3.55,1.66-7.41,2.49-11.56,2.49-3.6,0-6.79-.64-9.58-1.93-1.76-.81-3.5-1.84-5.23-3.11-1.27-.92-3.04-.04-3.04,1.53h0c0,1.06-.86,1.91-1.91,1.91h-10.5c-1.06,0-1.91-.86-1.91-1.91V29.6c0-1.06,.86-1.91,1.91-1.91Zm12.41,72.44c0,.49,.18,.98,.53,1.33,1.62,1.62,3.62,2.88,6.01,3.78,2.65,.99,5.2,1.49,7.65,1.49,5.4,0,9.79-1.92,13.18-5.75,3.39-3.84,5.09-8.87,5.09-15.11s-1.7-11.3-5.09-15.18c-3.39-3.88-7.79-5.82-13.18-5.82-2.45,0-4.99,.5-7.65,1.49-2.39,.89-4.39,2.15-6.01,3.77-.35,.35-.53,.83-.53,1.33v28.68Z"
       id="path14"
       style="fill:#000000" />
    <path
       class="cls-1"
       d="M279.37,53.51h10.5c1.06,0,1.91,.86,1.91,1.91v38c0,4.99,.94,8.45,2.84,10.39,1.89,1.94,4.64,2.91,8.24,2.91,5.26,0,9.57-2.15,12.94-6.44,3.37-4.3,5.05-10.23,5.05-17.81v-27.05c0-1.06,.86-1.91,1.91-1.91h10.5c1.06,0,1.91,.86,1.91,1.91v60.68c0,1.06-.86,1.91-1.91,1.91h-10.5c-1.06,0-1.91-.86-1.91-1.91v-5.08c0-1.9-2.46-2.62-3.51-1.04-1.24,1.87-2.73,3.51-4.45,4.91-3.88,3.14-8.65,4.71-14.33,4.71-6.6,0-11.77-2.16-15.5-6.47-3.74-4.31-5.61-10.9-5.61-19.76V55.42c0-1.06,.86-1.91,1.91-1.91Z"
       id="path16"
       style="fill:#000000" />
    <path
       class="cls-1"
       d="M390.78,118h-39.5c-1.06,0-1.91-.86-1.91-1.91v-9.05c0-1.06,.86-1.91,1.91-1.91h10.3c1.06,0,1.91-.86,1.91-1.91V42.48c0-1.06-.86-1.91-1.91-1.91h-10.3c-1.06,0-1.91-.86-1.91-1.91v-9.05c0-1.06,.86-1.91,1.91-1.91h24.62c1.06,0,1.91,.86,1.91,1.91V103.22c0,1.06,.86,1.91,1.91,1.91h11.06c1.06,0,1.91,.86,1.91,1.91v9.05c0,1.06-.86,1.91-1.91,1.91Z"
       id="path18"
       style="fill:#000000" />
    <path
       class="cls-1"
       d="M454.67,53.51c1.32,0,2.25,1.31,1.8,2.56l-26.9,74.53c-2.08,5.58-5.1,9.41-9.07,11.49-3.97,2.08-8.7,3.11-14.19,3.11-1.89,0-3.92-.19-6.09-.55-1.65-.28-3.36-.71-5.11-1.28-.94-.31-1.51-1.28-1.29-2.25l2.13-9.41c.25-1.09,1.38-1.73,2.45-1.39,1.23,.39,2.39,.68,3.48,.88,1.66,.3,3.14,.45,4.43,.45,4.29,0,7.22-1.89,8.79-5.67l2.28-5.54c.18-.44,.19-.94,.02-1.39l-23.42-62.95c-.46-1.25,.46-2.58,1.79-2.58h10.79c.8,0,1.52,.5,1.8,1.26l15.39,42.39c.62,1.7,3.03,1.67,3.61-.04l14.22-42.31c.26-.78,.99-1.3,1.81-1.3h11.27Z"
       id="path20"
       style="fill:#000000" />
    <g
       id="g28"
       style="fill:#000000">
      <path
         class="cls-1"
         d="M7.87,37.77c37,31.39,50.36,55.39,53.36,70.61,1.6,8.1,1.13,7.03,2.34,18.08,1.44,10.52,10.46,18.63,21.38,18.63,11.92,0,21.58-9.66,21.58-21.58,0-6.73-1.65-11.88-7.9-16.69-8.23-6.34-7.71-5.85-9.36-7.22-11.48-9.45-16.99-16.73-21.93-22.43-26.17-30.24-22.85-46.14-23.63-55.61C43.7,9.66,34.04,0,22.12,0S.55,9.66,.55,21.58c0,5.98,2.43,11.39,6.36,15.3l.96,.89Z"
         id="path22"
         style="fill:#000000" />
      <path
         class="cls-1"
         d="M26.48,74.78c13.88,19.71,10.84,51.82,10.84,51.82,0,10.11-7.87,18.73-17.97,19.09C8.73,146.06,0,137.57,0,127.04c-.04-2.84,0-6.25,4.22-13.13,11.75-19.54,10.97-34.11,10.1-39.45-.24-1.45-.82-3.24-.9-3.7-.68-3.74,2.22-5.35,4.73-4.86,3.51,.68,8.32,8.88,8.32,8.88Z"
         id="path24"
         style="fill:#000000" />
      <path
         class="cls-1"
         d="M79.49,70.92c-13.88-19.71-10.84-51.82-10.84-51.82,0-10.11,7.87-18.73,17.97-19.09,10.61-.38,19.33,8.11,19.33,18.64,.04,2.84,0,6.25-4.22,13.13-11.75,19.54-10.97,34.11-10.1,39.45,.24,1.45,.82,3.24,.9,3.7,.68,3.74-2.22,5.35-4.73,4.86-3.51-.68-8.32-8.88-8.32-8.88Z"
         id="path26"
         style="fill:#000000" />
    </g>
  </g>
</svg>
